<?xml version="1.0" encoding="UTF-8"?>
<svg width="540" height="540" version="1.1" viewBox="0 0 540 540" xmlns="http://www.w3.org/2000/svg" xmlns:cc="http://creativecommons.org/ns#" xmlns:dc="http://purl.org/dc/elements/1.1/" xmlns:rdf="http://www.w3.org/1999/02/22-rdf-syntax-ns#">
 <metadata>
  <rdf:RDF>
   <cc:Work rdf:about="">
    <dc:format>image/svg+xml</dc:format>
    <dc:type rdf:resource="http://purl.org/dc/dcmitype/StillImage"/>
    <dc:title/>
   </cc:Work>
  </rdf:RDF>
 </metadata>
 <g transform="translate(-.011049 -.044194)" stroke="#787878" stroke-width=".8">
  <path d="m82.171 123.35-23.641-13.74 4.9e-4 -36.64" fill="none"/>
  <path d="m48.872 104.33-1e-3 -53.672"/>
  <path d="m269.51 14.659 11.949 6.8534 11.963-6.9067" fill="none"/>
 </g>
 <path d="m446.19-760.83 221.13 127.67-2e-3 255.34-221.13 127.67-221.13-127.67 2e-3 -255.34z" fill="none" opacity=".988" stroke="#787878" stroke-linejoin="bevel" stroke-width="1.5001" style="paint-order:markers fill stroke"/>
 <rect width="29.505" height="29.505" fill="#f8f5f5" fill-rule="evenodd" stop-color="#000000" style="font-variation-settings:normal;paint-order:markers stroke fill"/>
 <rect x="510.49" y="510.49" width="29.505" height="29.505" fill="#f8f5f5" fill-rule="evenodd" stop-color="#000000" style="font-variation-settings:normal;paint-order:markers stroke fill"/>
 <g transform="translate(-.042969 .011719)" fill="none" stroke="#00c0c0" stroke-width=".8">
  <path d="m60.622 417.91-0.03949-13.775-11.963-6.9066" stroke="#787878"/>
  <g stroke-linecap="round" stroke-linejoin="round">
   <rect x="52.981" y="144.73" width="12.787" height="4.8325" stop-color="#000000" style="font-variation-settings:normal;paint-order:markers stroke fill"/>
   <rect x="52.981" y="154.56" width="12.787" height="4.8325" stop-color="#000000" style="font-variation-settings:normal;paint-order:markers stroke fill"/>
   <rect x="52.981" y="164.4" width="12.787" height="4.8325" stop-color="#000000" style="font-variation-settings:normal;paint-order:markers stroke fill"/>
  </g>
 </g>
 <path d="m58.53 60.973-1e-3 -53.672" stroke="#787878" stroke-width=".8"/>
 <g fill="none" stroke="#787878" stroke-width="1px">
  <path d="m48.872 142.32v127.64"/>
  <path d="m159.41 78.503-110.54 63.817"/>
  <path d="m48.872 269.96-5e-6 127.63"/>
  <path d="m269.94 14.685-110.54 63.817"/>
 </g>
</svg>
