<?xml version="1.0" encoding="UTF-8"?>
<svg width="540" height="540" version="1.1" viewBox="0 0 540 540" xmlns="http://www.w3.org/2000/svg" xmlns:cc="http://creativecommons.org/ns#" xmlns:dc="http://purl.org/dc/elements/1.1/" xmlns:rdf="http://www.w3.org/1999/02/22-rdf-syntax-ns#">
 <metadata>
  <rdf:RDF>
   <cc:Work rdf:about="">
    <dc:format>image/svg+xml</dc:format>
    <dc:type rdf:resource="http://purl.org/dc/dcmitype/StillImage"/>
    <dc:title/>
   </cc:Work>
  </rdf:RDF>
 </metadata>
 <g transform="translate(-19.618 14.422)" fill="none" stroke="#787878" stroke-width=".8">
  <path d="m68.49 127.9 221.13-127.67"/>
  <path d="m68.49 127.9v255.27l-2e-3 0.0726"/>
 </g>
 <g>
  <path d="m-147.07 367.51 46.391-26.96 2e-3 -166.59" fill="none" stroke="#787878"/>
  <path d="m-100.75 319.3 23.642-13.74 4.9e-4 -36.64" fill="none" stroke="#787878"/>
  <path d="m-108.8 163.32 8.1257 4.7225 8.1258-4.7225-7e-5 -9.4449-8.1257-4.7226-8.1258 4.7225z" fill="#00b4dc" opacity=".988" stroke-width="1.3106" style="paint-order:markers fill stroke"/>
 </g>
 <g stroke="#787878">
  <g>
   <g>
    <path d="m-112.57 153.24 6e-5 13.813 11.884 6.9068 11.91-6.9218-6e-5 -13.813" fill="none"/>
    <path d="m-141 376.77 16.161-9.3914"/>
    <path d="m-126.68 373.57 4.0403-2.3479"/>
    <path d="m-67.45 300.27 1e-3 -53.673"/>
    <path d="m-100.68 257.26-23.641-13.74 4.9e-4 -36.64" fill="none"/>
    <path d="m-133.98 238.23-1e-3 -53.672"/>
    <path d="m-92.376 146.96-8.2945-4.8206-8.2946 4.8206" fill="none"/>
    <path d="m-100.75 324.57 16.161-9.3914"/>
    <path d="m-116.84 253.14 16.161 9.3914"/>
   </g>
   <g stroke-width=".8">
    <path d="m82.171 123.35-23.641-13.74 4.9e-4 -36.64" fill="none"/>
    <path d="m48.872 104.33-1e-3 -53.672"/>
    <path d="m269.51 14.659 11.949 6.8534 11.963-6.9067" fill="none"/>
   </g>
  </g>
  <path d="m446.19-760.83 221.13 127.67-2e-3 255.34-221.13 127.67-221.13-127.67 2e-3 -255.34z" fill="none" opacity=".988" stroke-linejoin="bevel" stroke-width="1.5001" style="paint-order:markers fill stroke"/>
 </g>
 <rect width="29.505" height="29.505" fill="#f8f5f5" fill-rule="evenodd" stop-color="#000000" style="font-variation-settings:normal;paint-order:markers stroke fill"/>
 <rect x="510.49" y="510.49" width="29.505" height="29.505" fill="#f8f5f5" fill-rule="evenodd" stop-color="#000000" style="font-variation-settings:normal;paint-order:markers stroke fill"/>
 <g fill="none" stroke="#787878" stroke-width=".8">
  <path d="m60.622 417.91-0.03949-13.775-11.963-6.9066"/>
  <g stroke-linecap="round" stroke-linejoin="round">
   <rect x="52.981" y="144.73" width="12.787" height="4.8325" stop-color="#000000" style="font-variation-settings:normal;paint-order:markers stroke fill"/>
   <rect x="52.981" y="154.56" width="12.787" height="4.8325" stop-color="#000000" style="font-variation-settings:normal;paint-order:markers stroke fill"/>
   <rect x="52.981" y="164.4" width="12.787" height="4.8325" stop-color="#000000" style="font-variation-settings:normal;paint-order:markers stroke fill"/>
  </g>
 </g>
 <path d="m58.53 60.973-1e-3 -53.672" stroke="#787878" stroke-width=".8"/>
</svg>
