<?xml version="1.0" encoding="UTF-8"?>
<svg width="700" height="700" version="1.1" viewBox="0 0 700 700" xmlns="http://www.w3.org/2000/svg" xmlns:cc="http://creativecommons.org/ns#" xmlns:dc="http://purl.org/dc/elements/1.1/" xmlns:rdf="http://www.w3.org/1999/02/22-rdf-syntax-ns#">
 <metadata>
  <rdf:RDF>
   <cc:Work rdf:about="">
    <dc:format>image/svg+xml</dc:format>
    <dc:type rdf:resource="http://purl.org/dc/dcmitype/StillImage"/>
    <dc:title/>
   </cc:Work>
  </rdf:RDF>
 </metadata>
 <g transform="matrix(1.1557 0 0 1.1557 -78.71 -39.367)" stroke="#000000" stroke-width=".53275"></g>
 <g display="none">
  <g fill="none" stroke="#000000">
   <g stroke-width=".86528px">
    <path transform="matrix(1.1557 0 0 1.1557 -78.71 -39.367)" d="m12.47 13.604-6.7e-4 -41.932"/>
    <path transform="matrix(1.1557 0 0 1.1557 -78.71 -39.367)" d="m12.469-49.926v-8.1661l-0.0544 8.1656"/>
    <path transform="matrix(1.1557 0 0 1.1557 -78.71 -39.367)" d="m-124.39-49.145v-10.132l8.775-5.0662"/>
    <path transform="matrix(1.1557 0 0 1.1557 -78.71 -39.367)" d="m-121.94-43.944 8.775 5.0662 8.775-5.0662"/>
   </g>
   <rect transform="matrix(1.1557 0 0 1.1557 -78.71 -39.367)" x="-136.93" y="-134.93" width="173.33" height="157.13" stop-color="#000000" stroke-linecap="round" stroke-linejoin="round" stroke-width="1.7306" style="font-variation-settings:normal;paint-order:markers stroke fill"/>
   <path transform="matrix(1.1557 0 0 1.1557 -78.71 -39.367)" d="m12.47-31.789-6.7e-4 -14.675" stroke-width=".86528px"/>
   <path transform="matrix(1.1557 0 0 1.1557 -78.71 -39.367)" d="m12.442-61.556-1.6e-4 -3.6689" stroke-width=".86528px"/>
  </g>
  <path transform="matrix(1.1557 0 0 1.1557 -78.71 -39.367)" d="m-81.779-15.367-6.523-3.7661v-7.5321l6.523-3.7661 6.523 3.7661v7.5321z" fill="#000000" opacity=".988" style="paint-order:markers fill stroke"/>
  <g fill="none" stroke="#000000">
   <path transform="matrix(1.1557 0 0 1.1557 -78.71 -39.367)" d="m-75.346-46.545-9.3458 5.3958-9.3458-5.3958v-10.815l9.3458-5.3958" stroke-width=".92158px"/>
   <g stroke-width=".86528px">
    <path transform="matrix(1.1557 0 0 1.1557 -78.71 -39.367)" d="m-120.63-24.034 6.523 3.7661v7.5321"/>
    <path transform="matrix(1.1557 0 0 1.1557 -78.71 -39.367)" d="m-124.38-72.021v-21.468l24.79-14.312"/>
    <path transform="matrix(1.1557 0 0 1.1557 -78.71 -39.367)" d="m-124.6-102.13 36.314-20.967"/>
    <path transform="matrix(1.1557 0 0 1.1557 -78.71 -39.367)" d="m-79.173-100.34 18.592 10.734 24.79-14.312"/>
    <path transform="matrix(1.1557 0 0 1.1557 -78.71 -39.367)" d="m-53.207-85.1 36.314-20.965"/>
   </g>
  </g>
 </g>
 <path transform="matrix(1.1557 0 0 1.1557 -56.836 -17.905)" d="m189.55 157.88-6.7e-4 -42.126 112.71-65.076" fill="none" stroke="#000000" stroke-width=".53302"/>
 <path transform="matrix(1.1557 0 0 1.1557 -56.836 -17.905)" d="m203.96 107.49v-21.468l24.79-14.312" fill="none" stroke="#000000" stroke-width=".53302"/>
 <path transform="matrix(1.1557 0 0 1.1557 -56.836 -17.905)" d="m311.49 52.865-6.523-3.7661v-7.5321l6.523-3.7661 6.523 3.7661v7.5321z" fill="#000000" opacity=".988" style="paint-order:markers fill stroke"/>
 <g fill="none" stroke="#000000" stroke-width=".53302">
  <path transform="matrix(1.1557 0 0 1.1557 -56.836 -17.905)" d="m320.95 50.674-9.3458 5.3958-9.3458-5.3958v-10.815l9.3458-5.3958"/>
  <path transform="matrix(1.1557 0 0 1.1557 -56.836 -17.905)" d="m180.89 157.35-6.7e-4 -14.675"/>
  <path transform="matrix(1.1557 0 0 1.1557 -56.836 -17.905)" d="m177.43 146.35-1.6e-4 -3.6689"/>
  <path transform="matrix(1.1557 0 0 1.1557 -56.836 -17.905)" d="m203.74 77.382 36.314-20.967"/>
  <path transform="matrix(1.1557 0 0 1.1557 -56.836 -17.905)" d="m245.9 83.212 18.592 10.734 24.79-14.312"/>
  <path transform="matrix(1.1557 0 0 1.1557 -56.836 -17.905)" d="m271.87 98.453 36.314-20.965"/>
  <path transform="matrix(1.1557 0 0 1.1557 -56.836 -17.905)" d="m317.26 34.471 6.523 3.7661v7.5321"/>
  <path transform="matrix(1.1557 0 0 1.1557 -56.836 -17.905)" d="m517.88 478.81 6.7e-4 42.126-112.71 65.076"/>
  <path transform="matrix(1.1557 0 0 1.1557 -56.836 -17.905)" d="m503.47 529.2v21.468l-24.79 14.312"/>
 </g>
 <path transform="matrix(-1.1557 0 0 -1.1557 -56.836 -17.905)" d="m-395.93-583.82-6.523-3.7661v-7.5321l6.523-3.7661 6.523 3.7661v7.5321z" fill="#000000" opacity=".988" style="paint-order:markers fill stroke"/>
 <g fill="none" stroke="#000000">
  <g stroke-width=".53302">
   <path transform="matrix(1.1557 0 0 1.1557 -56.836 -17.905)" d="m386.47 586.01 9.3458-5.3958 9.3458 5.3958v10.815l-9.3458 5.3958"/>
   <path transform="matrix(1.1557 0 0 1.1557 -56.836 -17.905)" d="m526.53 479.33 6.7e-4 14.675"/>
   <path transform="matrix(1.1557 0 0 1.1557 -56.836 -17.905)" d="m529.99 490.34 1.6e-4 3.6689"/>
   <path transform="matrix(1.1557 0 0 1.1557 -56.836 -17.905)" d="m503.69 559.3-36.314 20.967"/>
   <path transform="matrix(1.1557 0 0 1.1557 -56.836 -17.905)" d="m461.52 553.47-18.592-10.734-24.79 14.312"/>
   <path transform="matrix(1.1557 0 0 1.1557 -56.836 -17.905)" d="m435.56 538.23-36.314 20.965"/>
   <path transform="matrix(1.1557 0 0 1.1557 -56.836 -17.905)" d="m390.17 602.21-6.523-3.766v-7.5321"/>
  </g>
  <g stroke-width="1px">
   <path d="m94.439 498.56-7.74e-4 -295.1"/>
   <path d="m605.37 203.46 7.7e-4 295.1"/>
   <path d="m94.437 203.46 255.56-147.55"/>
   <path d="m605.81 498.39-255.56 147.55"/>
   <path d="m350 646.11-255.56-147.55"/>
   <path d="m350 55.913 255.56 147.55"/>
  </g>
 </g>
</svg>
