<?xml version="1.0" encoding="UTF-8" standalone="no"?>
<svg
   xmlns:dc="http://purl.org/dc/elements/1.1/"
   xmlns:cc="http://creativecommons.org/ns#"
   xmlns:rdf="http://www.w3.org/1999/02/22-rdf-syntax-ns#"
   xmlns:svg="http://www.w3.org/2000/svg"
   xmlns="http://www.w3.org/2000/svg"
   xmlns:sodipodi="http://sodipodi.sourceforge.net/DTD/sodipodi-0.dtd"
   xmlns:inkscape="http://www.inkscape.org/namespaces/inkscape"
   inkscape:version="1.0 (4035a4fb49, 2020-05-01)"
   sodipodi:docname="item_hex_outline_page_deco2.svg"
   id="svg116"
   viewBox="0 0 512 512"
   version="1.1"
   height="512"
   width="512">
  <defs
     id="defs120" />
  <sodipodi:namedview
     inkscape:current-layer="svg116"
     inkscape:window-maximized="1"
     inkscape:window-y="-8"
     inkscape:window-x="-8"
     inkscape:cy="268.1578"
     inkscape:cx="19.732223"
     inkscape:zoom="0.88671875"
     inkscape:snap-page="true"
     inkscape:snap-bbox-midpoints="true"
     inkscape:snap-bbox-edge-midpoints="true"
     inkscape:bbox-nodes="true"
     inkscape:bbox-paths="true"
     inkscape:snap-bbox="true"
     showgrid="false"
     id="namedview118"
     inkscape:window-height="1057"
     inkscape:window-width="1920"
     inkscape:pageshadow="2"
     inkscape:pageopacity="0"
     guidetolerance="10"
     gridtolerance="10"
     objecttolerance="10"
     borderopacity="1"
     bordercolor="#666666"
     pagecolor="#ffffff" />
  <metadata
     id="metadata2">
    <rdf:RDF>
      <cc:Work
         rdf:about="">
        <dc:format>image/svg+xml</dc:format>
        <dc:type
           rdf:resource="http://purl.org/dc/dcmitype/StillImage" />
        <dc:title />
      </cc:Work>
    </rdf:RDF>
  </metadata>
  <g
     id="g4"
     stroke-width=".53275"
     stroke="#000000"
     transform="matrix(1.1557 0 0 1.1557 -78.71 -39.367)" />
  <g
     id="g42"
     display="none">
    <g
       id="g22"
       stroke="#000000"
       fill="none">
      <g
         id="g14"
         stroke-width=".86528px">
        <path
           id="path6"
           d="m12.47 13.604-6.7e-4 -41.932"
           transform="matrix(1.1557 0 0 1.1557 -78.71 -39.367)" />
        <path
           id="path8"
           d="m12.469-49.926v-8.1661l-0.0544 8.1656"
           transform="matrix(1.1557 0 0 1.1557 -78.71 -39.367)" />
        <path
           id="path10"
           d="m-124.39-49.145v-10.132l8.775-5.0662"
           transform="matrix(1.1557 0 0 1.1557 -78.71 -39.367)" />
        <path
           id="path12"
           d="m-121.94-43.944 8.775 5.0662 8.775-5.0662"
           transform="matrix(1.1557 0 0 1.1557 -78.71 -39.367)" />
      </g>
      <rect
         id="rect16"
         style="font-variation-settings:normal;paint-order:markers stroke fill"
         stroke-width="1.7306"
         stroke-linejoin="round"
         stroke-linecap="round"
         stop-color="#000000"
         height="157.13"
         width="173.33"
         y="-134.93"
         x="-136.93"
         transform="matrix(1.1557 0 0 1.1557 -78.71 -39.367)" />
      <path
         id="path18"
         stroke-width=".86528px"
         d="m12.47-31.789-6.7e-4 -14.675"
         transform="matrix(1.1557 0 0 1.1557 -78.71 -39.367)" />
      <path
         id="path20"
         stroke-width=".86528px"
         d="m12.442-61.556-1.6e-4 -3.6689"
         transform="matrix(1.1557 0 0 1.1557 -78.71 -39.367)" />
    </g>
    <path
       id="path24"
       style="paint-order:markers fill stroke"
       opacity=".988"
       fill="#000000"
       d="m-81.779-15.367-6.523-3.7661v-7.5321l6.523-3.7661 6.523 3.7661v7.5321z"
       transform="matrix(1.1557 0 0 1.1557 -78.71 -39.367)" />
    <g
       id="g40"
       stroke="#000000"
       fill="none">
      <path
         id="path26"
         stroke-width=".92158px"
         d="m-75.346-46.545-9.3458 5.3958-9.3458-5.3958v-10.815l9.3458-5.3958"
         transform="matrix(1.1557 0 0 1.1557 -78.71 -39.367)" />
      <g
         id="g38"
         stroke-width=".86528px">
        <path
           id="path28"
           d="m-120.63-24.034 6.523 3.7661v7.5321"
           transform="matrix(1.1557 0 0 1.1557 -78.71 -39.367)" />
        <path
           id="path30"
           d="m-124.38-72.021v-21.468l24.79-14.312"
           transform="matrix(1.1557 0 0 1.1557 -78.71 -39.367)" />
        <path
           id="path32"
           d="m-124.6-102.13 36.314-20.967"
           transform="matrix(1.1557 0 0 1.1557 -78.71 -39.367)" />
        <path
           id="path34"
           d="m-79.173-100.34 18.592 10.734 24.79-14.312"
           transform="matrix(1.1557 0 0 1.1557 -78.71 -39.367)" />
        <path
           id="path36"
           d="m-53.207-85.1 36.314-20.965"
           transform="matrix(1.1557 0 0 1.1557 -78.71 -39.367)" />
      </g>
    </g>
  </g>
  <path
     id="path46"
     stroke-width="0.616"
     stroke="#000000"
     fill="none"
     d="m 355.78067,429.6157 42.162,24.343 h 114.06" />
  <path
     id="path112"
     stroke-width="1px"
     stroke="#000000"
     fill="none"
     d="m-226.35 453.96z" />
  <path
     id="path114"
     stroke-width="1px"
     stroke="#000000"
     fill="none"
     d="m-226.35 453.96" />
</svg>
