<?xml version="1.0" encoding="UTF-8"?>
<svg width="512" height="512" version="1.1" viewBox="0 0 512 512" xmlns="http://www.w3.org/2000/svg" xmlns:cc="http://creativecommons.org/ns#" xmlns:dc="http://purl.org/dc/elements/1.1/" xmlns:rdf="http://www.w3.org/1999/02/22-rdf-syntax-ns#">
 <metadata>
  <rdf:RDF>
   <cc:Work rdf:about="">
    <dc:format>image/svg+xml</dc:format>
    <dc:type rdf:resource="http://purl.org/dc/dcmitype/StillImage"/>
    <dc:title/>
   </cc:Work>
  </rdf:RDF>
 </metadata>
 <g display="none">
  <g fill="none" stroke="#000000">
   <g stroke-width=".86528px">
    <path transform="matrix(1.1557 0 0 1.1557 -78.71 -39.367)" d="m12.47 13.604-6.7e-4 -41.932"/>
    <path transform="matrix(1.1557 0 0 1.1557 -78.71 -39.367)" d="m12.469-49.926v-8.1661l-0.0544 8.1656"/>
    <path transform="matrix(1.1557 0 0 1.1557 -78.71 -39.367)" d="m-124.39-49.145v-10.132l8.775-5.0662"/>
    <path transform="matrix(1.1557 0 0 1.1557 -78.71 -39.367)" d="m-121.94-43.944 8.775 5.0662 8.775-5.0662"/>
   </g>
   <rect transform="matrix(1.1557 0 0 1.1557 -78.71 -39.367)" x="-136.93" y="-134.93" width="173.33" height="157.13" stop-color="#000000" stroke-linecap="round" stroke-linejoin="round" stroke-width="1.7306" style="font-variation-settings:normal;paint-order:markers stroke fill"/>
   <path transform="matrix(1.1557 0 0 1.1557 -78.71 -39.367)" d="m12.47-31.789-6.7e-4 -14.675" stroke-width=".86528px"/>
   <path transform="matrix(1.1557 0 0 1.1557 -78.71 -39.367)" d="m12.442-61.556-1.6e-4 -3.6689" stroke-width=".86528px"/>
  </g>
  <path transform="matrix(1.1557 0 0 1.1557 -78.71 -39.367)" d="m-81.779-15.367-6.523-3.7661v-7.5321l6.523-3.7661 6.523 3.7661v7.5321z" fill="#000000" opacity=".988" style="paint-order:markers fill stroke"/>
  <g fill="none" stroke="#000000">
   <path transform="matrix(1.1557 0 0 1.1557 -78.71 -39.367)" d="m-75.346-46.545-9.3458 5.3958-9.3458-5.3958v-10.815l9.3458-5.3958" stroke-width=".92158px"/>
   <g stroke-width=".86528px">
    <path transform="matrix(1.1557 0 0 1.1557 -78.71 -39.367)" d="m-120.63-24.034 6.523 3.7661v7.5321"/>
    <path transform="matrix(1.1557 0 0 1.1557 -78.71 -39.367)" d="m-124.38-72.021v-21.468l24.79-14.312"/>
    <path transform="matrix(1.1557 0 0 1.1557 -78.71 -39.367)" d="m-124.6-102.13 36.314-20.967"/>
    <path transform="matrix(1.1557 0 0 1.1557 -78.71 -39.367)" d="m-79.173-100.34 18.592 10.734 24.79-14.312"/>
    <path transform="matrix(1.1557 0 0 1.1557 -78.71 -39.367)" d="m-53.207-85.1 36.314-20.965"/>
   </g>
  </g>
 </g>
 <rect width="29" height="29" fill="#f5f8f8" fill-rule="evenodd" stop-color="#000000" style="font-variation-settings:normal;paint-order:markers stroke fill"/>
 <g transform="matrix(-.77967 0 0 .77967 655.19 -143.19)">
  <path d="m324.22 326.55-7.7e-4 -48.685 130.26-75.208" fill="none" stroke="#000000" stroke-width=".616"/>
  <path d="m340.87 268.32v-24.811l28.649-16.541" fill="none" stroke="#000000" stroke-width=".616"/>
  <path d="m465.15 205.19-7.5386-4.3524v-8.7048l7.5386-4.3524 7.5386 4.3524v8.7048z" fill="#000000" opacity=".988" style="paint-order:markers fill stroke"/>
  <g fill="none" stroke="#000000" stroke-width=".616">
   <path d="m476.09 202.66-10.801 6.2359-10.801-6.2359v-12.499l10.801-6.2359"/>
   <path d="m314.22 325.95-7.7e-4 -16.96"/>
   <path d="m310.22 313.23-1.8e-4 -4.2401"/>
   <path d="m340.62 233.52 41.967-24.231"/>
   <path d="m389.35 240.26 21.487 12.405 28.649-16.541"/>
   <path d="m419.36 257.88 41.968-24.229"/>
   <path d="m471.82 183.93 7.5386 4.3524v8.7048"/>
   <path d="m703.67 697.45 7.7e-4 48.685-130.26 75.208"/>
   <path d="m687.02 755.68v24.811l-28.649 16.541"/>
  </g>
  <path transform="scale(-1)" d="m-562.74-818.81-7.5386-4.3524v-8.7048l7.5386-4.3524 7.5386 4.3524v8.7048z" fill="#000000" opacity=".988" style="paint-order:markers fill stroke"/>
  <g fill="none" stroke="#000000">
   <g stroke-width=".616">
    <path d="m551.81 821.34 10.801-6.2359 10.801 6.2359v12.499l-10.801 6.2359"/>
    <path d="m713.67 698.05 7.7e-4 16.96"/>
    <path d="m717.67 710.77 1.8e-4 4.2401"/>
    <path d="m687.27 790.48-41.967 24.231"/>
    <path d="m638.54 783.74-21.487-12.405-28.649 16.541"/>
    <path d="m608.53 766.12-41.968 24.229"/>
    <path d="m556.08 840.07-7.5386-4.3524v-8.7048"/>
   </g>
   <g stroke-width="1px">
    <path d="m256.44 660.56-7.8e-4 -295.1"/>
    <path d="m767.37 365.46 7.7e-4 295.1"/>
    <path d="M 256.44,365.46 512,217.91"/>
    <path d="m767.81 660.39-255.56 147.55"/>
    <path d="m512 808.11-255.56-147.55"/>
    <path d="m512 217.91 255.56 147.55"/>
   </g>
  </g>
 </g>
 <rect x="483" y="483" width="29" height="29" fill="#f5f8f8" fill-rule="evenodd" stop-color="#000000" style="font-variation-settings:normal;paint-order:markers stroke fill"/>
 <path d="m-226.35 453.96" fill="none" stroke="#000000" stroke-width="1px"/>
 <path d="m-226.35 453.96" fill="none" stroke="#000000" stroke-width="1px"/>
</svg>
