<?xml version="1.0" encoding="UTF-8"?>
<svg width="996.03" height="573.33" version="1.1" viewBox="0 0 263.53 151.69" xmlns="http://www.w3.org/2000/svg" xmlns:cc="http://creativecommons.org/ns#" xmlns:dc="http://purl.org/dc/elements/1.1/" xmlns:rdf="http://www.w3.org/1999/02/22-rdf-syntax-ns#">
 <metadata>
  <rdf:RDF>
   <cc:Work rdf:about="">
    <dc:format>image/svg+xml</dc:format>
    <dc:type rdf:resource="http://purl.org/dc/dcmitype/StillImage"/>
    <dc:title/>
   </cc:Work>
  </rdf:RDF>
 </metadata>
 <g transform="translate(93.089 41.549)">
  <g transform="matrix(.26458 0 0 .26458 -78.598 -125.53)" fill="none" stroke="#282828" stroke-width="6">
   <path d="m664.38 731.73-221.13 127.67-221.13-127.67-6.7e-4 -255.34 221.13-127.67 221.13 127.67z" fill="none" opacity=".988" stroke="#282828" stroke-linejoin="bevel" stroke-width="6" style="paint-order:markers fill stroke"/>
  </g>
  <g transform="matrix(.24832 0 0 .24832 -33.24 -29.167)" stroke="#787878" stroke-width="2.6637">
   <path transform="matrix(.878 -.50691 .50691 .878 -43.031 191.41)" d="m378.44 436.99-251.86-1e-5 -125.93-218.12 125.93-218.12 251.86 1.229e-5 125.93 218.12z" fill="none" opacity=".988" stroke="#787878" stroke-linejoin="bevel" stroke-width="2.6274" style="paint-order:markers fill stroke"/>
  </g>
  <g transform="matrix(.16475 0 0 .16475 -129.29 -120.03)" fill="none" stroke-width="9.6358">
   <path d="m664.38 476.39 6.7e-4 255.34-221.13 127.67-221.13-127.67" opacity=".988" stroke="#282828" stroke-linejoin="bevel" style="paint-order:markers fill stroke"/>
   <path d="m222.12 476.39" stroke="#000"/>
  </g>
 </g>
</svg>
